<svg width="32" height="32" viewBox="0 0 32 32" fill="none" xmlns="http://www.w3.org/2000/svg">
<g clip-path="url(#clip0_258_338)">
<path d="M28.5261 22.5508C26.5103 20.8467 25.3542 18.356 25.3542 15.7173V12C25.3542 7.30811 21.8689 3.42407 17.3542 2.77344V1.33325C17.3542 0.595947 16.7568 0 16.0208 0C15.2849 0 14.6875 0.595947 14.6875 1.33325V2.77344C10.1714 3.42407 6.6875 7.30811 6.6875 12V15.7173C6.6875 18.356 5.53149 20.8467 3.50342 22.5613C2.98486 23.0054 2.6875 23.6506 2.6875 24.3333C2.6875 25.6201 3.73413 26.6667 5.02075 26.6667H27.0208C28.3076 26.6667 29.3542 25.6201 29.3542 24.3333C29.3542 23.6506 29.0569 23.0054 28.5261 22.5508Z" fill="#6595FB"/>
<path d="M16.0208 32C18.4355 32 20.4556 30.2786 20.9194 28H11.1221C11.5862 30.2786 13.6062 32 16.0208 32Z" fill="#6595FB"/>
</g>
<defs>
<clipPath id="clip0_258_338">
<rect width="32" height="32" fill="white"/>
</clipPath>
</defs>
</svg>
