<svg width="232" height="28" viewBox="0 0 232 28" fill="none" xmlns="http://www.w3.org/2000/svg">
<path d="M37.2874 12.9071H31.3141L31.7442 11.7353C31.9477 11.1881 32.4726 10.8261 33.0587 10.8286H35.0766C34.8976 10.3572 34.5228 9.98605 34.0484 9.81105C33.7212 9.67944 33.3712 9.61272 33.0184 9.61491C31.9536 9.61309 30.9565 10.1333 30.3518 11.0062C30.0404 11.4517 29.9437 12.0117 30.0872 12.5352C30.257 13.0241 30.6399 13.4099 31.1286 13.5856C31.4503 13.7154 31.7947 13.7828 32.1417 13.7836H36.8262C35.7717 15.3104 34.0297 16.2223 32.1692 16.2212C31.4909 16.2233 30.8189 16.0921 30.1919 15.8347C29.0349 15.3874 28.1406 14.4456 27.7567 13.2699C27.3939 12.0594 27.5894 10.751 28.2911 9.6984C29.678 7.52184 32.6205 6.58777 34.9825 7.56012C36.0133 7.95095 36.8409 8.74137 37.2761 9.7509C37.7109 10.7601 37.7153 11.9019 37.2882 12.9148L37.2874 12.9071ZM47.7717 12.9487H41.7984L42.2285 11.7769C42.4313 11.23 42.9554 10.8676 43.5407 10.8702H45.5605C45.3819 10.3988 45.0067 10.0276 44.5323 9.85262C44.2051 9.721 43.8555 9.65465 43.5027 9.65647C42.4379 9.65428 41.4404 10.1749 40.8357 11.0477C40.525 11.4932 40.4276 12.0529 40.5696 12.5768C40.7409 13.0653 41.1238 13.4511 41.6125 13.6271C41.9338 13.7569 42.2772 13.824 42.6238 13.8248H47.3105C46.2559 15.352 44.5136 16.2634 42.6527 16.2624C41.9745 16.2645 41.3024 16.1333 40.6754 15.8759C39.5184 15.4286 38.6242 14.4868 38.2402 13.3111C37.8775 12.1006 38.0733 10.7925 38.7746 9.73996C40.1615 7.56303 43.104 6.62897 45.466 7.60132C46.4968 7.99215 47.3244 8.78293 47.7596 9.79246C48.1941 10.8016 48.1985 11.9435 47.7717 12.9563V12.9487ZM13.2032 12.6606L13.0393 13.1091C12.4346 14.7566 10.8614 15.8529 9.10038 15.8533H3.65236L4.73106 12.8983H1.93457L2.36283 11.7266C2.56707 11.1801 3.0916 10.818 3.67725 10.8191H7.29035C7.67725 10.8202 7.98984 11.133 7.98874 11.5184C7.98838 11.5979 7.97483 11.6766 7.94775 11.7517L7.33318 13.4274H9.15639C9.74423 13.4274 10.2691 13.0617 10.4708 12.5115L10.7241 11.817C10.9891 11.0969 10.618 10.2992 9.89504 10.0353C9.73948 9.9784 9.57513 9.94996 9.40968 9.95033H3.03047L3.91993 7.51637L5.11027 4.25079C5.31122 3.70064 5.83647 3.3346 6.42469 3.33496H8.24753L6.71934 7.50689H9.58098C10.8394 7.50652 12.0191 8.11793 12.7413 9.14423C13.4624 10.1705 13.6348 11.483 13.2029 12.6599M26.5934 13.3825L26.0155 14.9608C25.8105 15.5066 25.2863 15.8682 24.701 15.8671H16.9148L17.4851 14.3078C17.5766 14.0566 17.7395 13.8375 17.9536 13.6767L23.2139 9.95105H19.0601L19.6432 8.38918C19.8464 7.8434 20.3694 7.48137 20.9536 7.48246H28.4016L27.8332 9.04069C27.7402 9.29262 27.5762 9.51246 27.361 9.67361L22.1004 13.3749L26.5934 13.3825ZM12.9375 15.8533L15.6557 8.41616C15.8595 7.86965 16.3841 7.50798 16.9693 7.5098H18.7926L16.077 14.9458C15.8731 15.4927 15.3482 15.8551 14.7622 15.8533H12.9375ZM18.4075 5.9585H16.5846L17.1897 4.30402C17.3932 3.75751 17.917 3.39548 18.5019 3.3973H20.3248L19.7197 5.05105C19.5169 5.59756 18.9928 5.95996 18.4075 5.9585Z" fill="#1C1B18"/>
<path d="M27.6757 24.1717L28.2068 22.7319L28.2145 23.157L27.0183 20.224H27.5718L28.4656 22.4888H28.3035L29.157 20.224H29.6955L28.1816 24.1717H27.6757ZM25.6702 23.0331C25.4074 23.0331 25.1874 22.9696 25.0099 22.8428C24.8291 22.7108 24.6893 22.5314 24.6062 22.3243C24.5114 22.0906 24.4649 21.8402 24.4689 21.5879C24.4689 21.3144 24.5139 21.0694 24.6036 20.851C24.6951 20.6338 24.8287 20.4624 25.0051 20.337C25.1834 20.2108 25.4016 20.1474 25.6607 20.1474C25.9177 20.1474 26.1402 20.2108 26.3262 20.3377C26.5139 20.4624 26.6592 20.6338 26.7606 20.8518C26.8624 21.0676 26.9129 21.313 26.9129 21.5882C26.9129 21.8617 26.8624 22.1078 26.7606 22.3269C26.6684 22.5354 26.5198 22.7141 26.3316 22.8431C26.1464 22.9696 25.9264 23.0331 25.6702 23.0331ZM24.38 22.9569V19.3129H24.9133V20.9907H24.8521V22.9569H24.3792M25.5959 22.5547C25.7654 22.5547 25.9056 22.5117 26.0154 22.4253C26.127 22.3393 26.2101 22.2241 26.2639 22.0786C26.3203 21.932 26.3485 21.7683 26.3485 21.5882C26.3485 21.4092 26.3203 21.2473 26.2639 21.1022C26.2156 20.9652 26.1285 20.8445 26.0128 20.7555C25.8994 20.6691 25.7544 20.6261 25.578 20.6261C25.4118 20.6261 25.2749 20.6666 25.1666 20.7475C25.0553 20.8346 24.9718 20.9528 24.9272 21.0866C24.8767 21.2313 24.851 21.3986 24.851 21.5879C24.851 21.7767 24.8763 21.9433 24.9275 22.0888C24.9781 22.2335 25.0589 22.3477 25.1688 22.4304C25.2797 22.5132 25.4217 22.5547 25.5959 22.5547ZM21.3635 23.0331C21.108 23.0331 20.8865 22.9696 20.7002 22.8428C20.5128 22.7126 20.3642 22.5343 20.2709 22.3265C20.168 22.0939 20.1168 21.842 20.1208 21.5879C20.1208 21.3126 20.1713 21.0676 20.2731 20.851C20.3748 20.6338 20.5187 20.4624 20.705 20.337C20.8928 20.2108 21.116 20.1474 21.3734 20.1474C21.6322 20.1474 21.8499 20.2108 22.0264 20.3377C22.2043 20.4624 22.3379 20.6338 22.4275 20.8518C22.5191 21.0691 22.5648 21.3144 22.5648 21.5882C22.5648 21.8617 22.5187 22.1067 22.4275 22.3247C22.3445 22.5318 22.2046 22.7115 22.0242 22.8431C21.8459 22.9696 21.6256 23.0334 21.3628 23.0334M21.4367 22.5547C21.6113 22.5547 21.7533 22.5132 21.8635 22.4304C21.9766 22.3436 22.0608 22.2248 22.1051 22.0895C22.1556 21.9437 22.1812 21.7771 22.1812 21.5882C22.1812 21.399 22.1549 21.2324 22.1025 21.0869C22.0593 20.9524 21.9759 20.8343 21.8639 20.7479C21.7573 20.6669 21.6208 20.6265 21.455 20.6265C21.2786 20.6265 21.1344 20.6695 21.0205 20.7555C20.9045 20.8448 20.8163 20.9652 20.7661 21.1026C20.7116 21.2473 20.6849 21.4096 20.6849 21.5886C20.6849 21.7691 20.7116 21.9324 20.7661 22.079C20.8225 22.2244 20.9048 22.3396 21.0147 22.4257C21.127 22.5117 21.2672 22.5547 21.4367 22.5547ZM22.1808 22.9569V20.9903H22.1197V19.3125H22.6534V22.9565L22.1808 22.9569ZM18.4587 23.0331C18.1856 23.0331 17.9458 22.9736 17.7398 22.8555C17.5363 22.737 17.3697 22.5646 17.2595 22.3571C17.1461 22.1431 17.0893 21.8945 17.0893 21.6134C17.0893 21.3144 17.1457 21.0556 17.2573 20.8365C17.3704 20.617 17.5278 20.4478 17.7295 20.3279C17.9312 20.2083 18.1658 20.1481 18.433 20.1481C18.7127 20.1481 18.951 20.2134 19.1475 20.3435C19.3437 20.4715 19.4898 20.6545 19.5871 20.8926C19.6856 21.131 19.724 21.4132 19.7039 21.7406H19.1724V21.5481C19.1688 21.2309 19.108 20.9969 18.9894 20.8445C18.8723 20.6928 18.694 20.617 18.4532 20.617C18.1871 20.617 17.9876 20.7001 17.8532 20.8674C17.7196 21.0341 17.653 21.2758 17.653 21.5911C17.653 21.8916 17.7196 22.1242 17.8536 22.2897C17.9872 22.453 18.1801 22.5351 18.433 22.5351C18.5985 22.5351 18.742 22.4982 18.8624 22.4239C18.9843 22.348 19.0791 22.2401 19.1472 22.1001L19.6677 22.2645C19.5611 22.5088 19.3994 22.6991 19.1823 22.834C18.9649 22.9674 18.7138 23.0367 18.4587 23.0338M17.4799 21.7399V21.3272H19.4385V21.7399H17.4799ZM15.3258 22.9569V20.224H15.7987V20.8875L15.7332 20.8011C15.7665 20.7132 15.8104 20.633 15.8646 20.5605C15.9191 20.4868 15.9817 20.4259 16.0531 20.3782C16.1226 20.3279 16.1995 20.2896 16.2844 20.2619C16.3708 20.2334 16.459 20.2167 16.5483 20.2116C16.638 20.205 16.7248 20.2094 16.8079 20.2243V20.7205C16.7098 20.6961 16.608 20.6892 16.5077 20.7001C16.4008 20.7096 16.298 20.7453 16.2079 20.8036C16.1215 20.8598 16.0531 20.9269 16.0018 21.0064C15.9532 21.0858 15.9173 21.1744 15.8953 21.2721C15.8734 21.368 15.8624 21.4701 15.8624 21.578V22.9572H15.3258M13.5114 23.0331C13.2387 23.0331 12.9993 22.9736 12.7925 22.8555C12.589 22.737 12.4224 22.5646 12.3122 22.3571C12.1988 22.1431 12.1424 21.8945 12.1424 21.6134C12.1424 21.3144 12.198 21.0556 12.3097 20.8365C12.4232 20.617 12.5809 20.4478 12.7826 20.3279C12.9843 20.2083 13.2189 20.1481 13.4861 20.1481C13.7658 20.1481 14.0033 20.2134 14.1999 20.3435C14.3964 20.4715 14.5428 20.6545 14.6395 20.8926C14.7379 21.131 14.7767 21.4132 14.7566 21.7406H14.2251V21.5481C14.2218 21.2309 14.1607 20.9969 14.0421 20.8445C13.9253 20.6928 13.7467 20.617 13.5059 20.617C13.2398 20.617 13.0403 20.7001 12.9063 20.8674C12.7727 21.0341 12.7057 21.2758 12.7057 21.5911C12.7057 21.8916 12.7727 22.1242 12.9063 22.2897C13.0399 22.453 13.2332 22.5351 13.4857 22.5351C13.6519 22.5351 13.7947 22.4982 13.9151 22.4239C14.037 22.348 14.1318 22.2401 14.1999 22.1001L14.7204 22.2645C14.6139 22.5088 14.4521 22.6991 14.2354 22.834C14.018 22.9667 13.7669 23.036 13.5114 23.0331ZM12.5333 21.7399V21.3272H14.492V21.7399H12.5333ZM8.96342 22.9569L8.1252 20.2214L8.65082 20.2236L9.22476 22.099L9.80419 20.2236H10.2614L10.8408 22.099L11.4147 20.2236H11.9382L11.0999 22.9565H10.6732L10.0333 20.9779L9.39057 22.9569H8.96378M6.57359 23.0331C6.29907 23.0331 6.06078 22.9715 5.85983 22.8482C5.65888 22.7257 5.49672 22.5496 5.39204 22.3396C5.28369 22.1223 5.22915 21.8715 5.22915 21.5882C5.22915 21.3031 5.28552 21.0523 5.39716 20.8361C5.50185 20.6261 5.6651 20.4504 5.86715 20.3301C6.06883 20.2086 6.30419 20.1478 6.57359 20.1478C6.84811 20.1478 7.08567 20.2094 7.28735 20.3326C7.48904 20.4558 7.6446 20.6254 7.75514 20.8412C7.86495 21.057 7.92022 21.306 7.92022 21.5879C7.92022 21.873 7.86385 22.1242 7.75221 22.3418C7.64753 22.5518 7.48538 22.7283 7.28443 22.8504C7.08311 22.9726 6.84628 23.0331 6.57359 23.0331ZM6.57359 22.5343C6.8364 22.5343 7.03186 22.4468 7.16034 22.2715C7.29065 22.0939 7.3558 21.8664 7.3558 21.5886C7.3558 21.3035 7.29028 21.0756 7.15778 20.905C7.02747 20.7329 6.83238 20.6472 6.57323 20.6472C6.39497 20.6472 6.24855 20.6873 6.13362 20.7686C6.01832 20.8481 5.93303 20.9582 5.87703 21.1004C5.82066 21.2401 5.79248 21.4027 5.79248 21.5886C5.79248 21.8755 5.8591 22.1048 5.99087 22.2769C6.12301 22.449 6.31737 22.5347 6.57249 22.5347M3.57872 23.0331C3.3159 23.0331 3.09555 22.9696 2.91766 22.8428C2.73684 22.7108 2.59702 22.5314 2.51393 22.3243C2.41949 22.0903 2.37301 21.8402 2.37703 21.5879C2.37703 21.3144 2.42169 21.0694 2.51173 20.851C2.60324 20.6338 2.73684 20.4624 2.9129 20.337C3.09116 20.2108 3.30932 20.1474 3.56847 20.1474C3.82615 20.1474 4.04797 20.2108 4.23465 20.3377C4.42242 20.4624 4.56737 20.6338 4.66839 20.8518C4.77015 21.0676 4.82066 21.313 4.82066 21.5882C4.82066 21.8617 4.77015 22.1078 4.66839 22.3269C4.57615 22.5354 4.42754 22.7141 4.23904 22.8431C4.05456 22.9696 3.83457 23.0331 3.57872 23.0331ZM2.28809 24.1717V20.224H2.76027V22.1905H2.82139V24.1717H2.28809ZM3.50514 22.5547C3.67388 22.5547 3.81407 22.5117 3.92388 22.4253C4.03589 22.3393 4.11898 22.2241 4.17279 22.0786C4.22915 21.932 4.25661 21.7683 4.25661 21.5882C4.25661 21.4092 4.22842 21.2473 4.17279 21.1022C4.1241 20.9648 4.03699 20.8445 3.92132 20.7555C3.80785 20.6691 3.66327 20.6261 3.48684 20.6261C3.32066 20.6261 3.1834 20.6666 3.07506 20.7475C2.96378 20.8346 2.88033 20.9528 2.83567 21.0866C2.78552 21.2313 2.75954 21.3986 2.75954 21.5879C2.75954 21.7767 2.78516 21.9433 2.83604 22.0888C2.88655 22.2335 2.96744 22.3477 3.07762 22.4304C3.18816 22.5132 3.33055 22.5547 3.50514 22.5547Z" fill="#434343"/>
<path fill-rule="evenodd" clip-rule="evenodd" d="M31.6752 23.0069H32.5833V19.6754H31.6748V23.0069M36.0881 23.0069H35.1803V20.9952C35.1803 20.7615 35.1433 20.5967 35.0701 20.5004C34.9801 20.3881 34.8198 20.3324 34.5873 20.3324C34.1192 20.3324 33.8853 20.5883 33.8853 21.1013V23.0073H32.9775V19.6757H33.8465V19.9889C33.8465 20.1096 33.8494 20.1697 33.8531 20.1697C33.8531 20.165 33.8549 20.1635 33.8593 20.1635C33.9676 19.9791 34.1276 19.8303 34.3198 19.7352C34.5159 19.6338 34.7337 19.5813 34.9548 19.582C35.4098 19.582 35.7403 19.7552 35.9464 20.1005C36.0416 20.2671 36.0881 20.4672 36.0881 20.7009V23.0073" fill="#035496"/>
<path fill-rule="evenodd" clip-rule="evenodd" d="M39.4887 20.869H38.5806C38.5502 20.6984 38.4792 20.5639 38.3675 20.4658C38.2618 20.3703 38.1238 20.3178 37.981 20.3192C37.7405 20.3192 37.5542 20.4272 37.4206 20.6441C37.3137 20.8278 37.2596 21.0426 37.2596 21.2879C37.2596 22.0051 37.4847 22.3671 37.936 22.3759C38.0945 22.3759 38.2354 22.3248 38.358 22.2227C38.4799 22.1199 38.5498 21.9799 38.5674 21.8009H39.4821C39.4305 22.1928 39.2577 22.5082 38.9638 22.7474C38.6699 22.9876 38.3167 23.109 37.9038 23.113C37.3884 23.113 36.9935 22.9508 36.7186 22.6256C36.4605 22.3215 36.332 21.9154 36.332 21.4068C36.332 20.865 36.4565 20.4359 36.7058 20.1191C36.9843 19.7651 37.3954 19.5879 37.936 19.5879C38.365 19.5879 38.7193 19.6962 38.9989 19.9127C39.2995 20.1464 39.4634 20.4654 39.4887 20.8694" fill="#035496"/>
<path fill-rule="evenodd" clip-rule="evenodd" d="M41.665 20.3066H41.0787V23.0071H40.1826V20.3066H39.6797V19.6751H40.1826C40.1826 18.8668 40.668 18.4629 41.6391 18.4629V19.1756C41.411 19.1756 41.2606 19.2107 41.1888 19.2817C41.1138 19.3517 41.0783 19.4837 41.0783 19.6751H41.6647V20.3066M42.041 23.0063H42.9487V19.6748H42.041V23.0063ZM43.3557 23.0063H44.2639V18.5121H43.3554V23.0063M46.9923 21.019C46.971 20.7955 46.8924 20.6201 46.7577 20.4922C46.6336 20.3689 46.4652 20.3 46.2899 20.3008C46.1182 20.3008 45.9696 20.3602 45.8455 20.4801C45.7075 20.6081 45.6211 20.7875 45.5874 21.0193H46.9923M47.9194 21.575H45.5556C45.5772 21.8502 45.6672 22.0628 45.8261 22.2126C45.9634 22.3377 46.131 22.3997 46.329 22.3997C46.4743 22.3997 46.6057 22.3668 46.7218 22.3001C46.8294 22.2436 46.9103 22.147 46.9469 22.0314H47.8748C47.7716 22.3687 47.5871 22.6304 47.3213 22.8164C47.0545 23.0012 46.7386 23.0942 46.3733 23.0942C45.2269 23.0942 44.6537 22.4872 44.6537 21.2749C44.6537 20.7623 44.799 20.3533 45.0889 20.0463C45.3784 19.7404 45.7855 19.5876 46.3093 19.5876C47.3828 19.5876 47.9194 20.2493 47.9194 21.575Z" fill="#035496"/>
<path fill-rule="evenodd" clip-rule="evenodd" d="M42.9733 18.8935C42.9704 19.1466 42.7625 19.3489 42.5085 19.3464C42.5081 19.3464 42.5074 19.3464 42.507 19.3464C42.253 19.3496 42.0444 19.1469 42.0414 18.8935C42.0444 18.6409 42.2526 18.4382 42.5067 18.4415H42.507C42.7607 18.4378 42.9697 18.6398 42.9733 18.8928C42.9733 18.8928 42.9733 18.8932 42.9733 18.8935ZM32.5725 18.8935C32.5696 19.1466 32.361 19.3493 32.107 19.3464C31.8529 19.3496 31.6443 19.1473 31.6406 18.8943V18.8939C31.6436 18.6412 31.8518 18.4385 32.1059 18.4418H32.1062C32.3599 18.4378 32.5689 18.6398 32.5729 18.8924C32.5729 18.8928 32.5729 18.8935 32.5729 18.8939" fill="#ED5726"/>
</svg>
