<svg width="16" height="16" viewBox="0 0 16 16" fill="none" xmlns="http://www.w3.org/2000/svg">
<g id="clipboard">
<path id="Icon" d="M10.666 2.66683H11.9993C12.353 2.66683 12.6921 2.80731 12.9422 3.05735C13.1922 3.3074 13.3327 3.64654 13.3327 4.00016V13.3335C13.3327 13.6871 13.1922 14.0263 12.9422 14.2763C12.6921 14.5264 12.353 14.6668 11.9993 14.6668H3.99935C3.64573 14.6668 3.30659 14.5264 3.05654 14.2763C2.80649 14.0263 2.66602 13.6871 2.66602 13.3335V4.00016C2.66602 3.64654 2.80649 3.3074 3.05654 3.05735C3.30659 2.80731 3.64573 2.66683 3.99935 2.66683H5.33268M5.99935 1.3335H9.99935C10.3675 1.3335 10.666 1.63197 10.666 2.00016V3.3335C10.666 3.70169 10.3675 4.00016 9.99935 4.00016H5.99935C5.63116 4.00016 5.33268 3.70169 5.33268 3.3335V2.00016C5.33268 1.63197 5.63116 1.3335 5.99935 1.3335Z" stroke="#475467" stroke-width="1.5" stroke-linecap="round" stroke-linejoin="round"/>
</g>
</svg>
