<svg width="32" height="32" viewBox="0 0 32 32" fill="none" xmlns="http://www.w3.org/2000/svg">
<g id="Control">
<path id="Vector" d="M32 16.2774C32 17.8602 29.1641 18.9754 28.7004 20.4038C28.2193 21.8842 29.8416 24.4502 28.9445 25.682C28.0391 26.9266 25.0915 26.1722 23.8469 27.0781C22.6147 27.9747 22.4265 31.0155 20.9466 31.4947C19.5182 31.9584 17.5847 29.6238 16 29.6238C14.4152 29.6238 12.4834 31.9584 11.0533 31.4947C9.57294 31.0137 9.38478 27.9729 8.15254 27.0781C6.90839 26.1727 3.96077 26.9271 3.05489 25.6825C2.15834 24.4502 3.7801 21.8842 3.29955 20.4042C2.8359 18.9759 0 17.8607 0 16.2778C0 14.6949 2.8359 13.5798 3.29964 12.1514C3.78019 10.6714 2.15843 8.10534 3.05499 6.87318C3.96087 5.62857 6.90848 6.38295 8.1531 5.47753C9.38488 4.58097 9.57303 1.53965 11.0534 1.06095C12.4818 0.597212 14.4153 2.9318 16 2.9318C17.5847 2.9318 19.5166 0.597212 20.9466 1.06095C22.4267 1.5415 22.6152 4.58273 23.847 5.47753C25.0916 6.38341 28.0392 5.62903 28.9451 6.87318C29.8417 8.10543 28.2194 10.6715 28.7004 12.1514C29.1641 13.5792 32 14.6944 32 16.2774Z" fill="#6595FB"/>
<path id="Vector_2" d="M14.7054 21.2703C14.2369 21.2709 13.7873 21.0848 13.4564 20.7531L9.51765 16.8144C8.82762 16.1245 8.82744 15.0059 9.51719 14.3159C10.207 13.6259 11.3256 13.6257 12.0156 14.3154L14.7053 17.0047L20.1929 11.5176C20.8829 10.8276 22.0015 10.8275 22.6916 11.5174C23.3816 12.2073 23.3817 13.326 22.6918 14.016L15.9547 20.7531C15.6237 21.0849 15.174 21.271 14.7054 21.2703Z" fill="white"/>
</g>
</svg>
