<svg width="32" height="32" viewBox="0 0 32 32" fill="none" xmlns="http://www.w3.org/2000/svg">
<g id="Group">
<g id="Group_2">
<g id="Group_3">
<path id="Vector" d="M20.545 22.9068C20.4186 22.7544 20.2305 22.6665 20.0326 22.6665H11.9675C11.7695 22.6665 11.5814 22.7544 11.4551 22.9068C11.3281 23.0591 11.276 23.2596 11.3118 23.4543C12.2702 28.6457 14.1107 31.9999 16 31.9999C17.8893 31.9999 19.7298 28.6457 20.6881 23.4543C20.724 23.2596 20.6719 23.0591 20.545 22.9068Z" fill="#6595FB"/>
<path id="Vector_2" d="M31.2395 11.1301C31.1516 10.854 30.8951 10.6665 30.6048 10.6665H23.0976C22.9095 10.6665 22.7298 10.7459 22.6035 10.8859C22.4766 11.0259 22.4154 11.2127 22.4343 11.4002C22.5886 12.9314 22.6667 14.4796 22.6667 15.9998C22.6667 17.52 22.5886 19.0682 22.4343 20.5994C22.4154 20.7869 22.4766 20.9738 22.6035 21.1138C22.7298 21.2538 22.9095 21.3331 23.0976 21.3331H30.6048C30.8952 21.3331 31.1517 21.1456 31.2396 20.8696C31.7441 19.2896 32 17.6516 32 15.9999C32 14.3482 31.7441 12.7102 31.2395 11.1301Z" fill="#6595FB"/>
<path id="Vector_3" d="M22.0807 8.77743C22.1348 9.09837 22.4128 9.33343 22.7383 9.33343H29.4675C29.7025 9.33343 29.9206 9.20906 30.041 9.00725C30.1609 8.80475 30.1654 8.55412 30.0528 8.34775C28.0514 4.68037 24.6133 1.88681 20.6185 0.683684C20.3613 0.604246 20.0781 0.692121 19.9069 0.903746C19.737 1.116 19.7122 1.40962 19.8444 1.64656C20.8157 3.38743 21.5892 5.85293 22.0807 8.77743Z" fill="#6595FB"/>
<path id="Vector_4" d="M20.42 10.6667H11.5801C11.2396 10.6667 10.9538 10.9232 10.9174 11.2618C10.7514 12.8009 10.6667 14.3952 10.6667 16.0001C10.6667 17.605 10.7514 19.1994 10.9174 20.7384C10.9538 21.077 11.2396 21.3335 11.5801 21.3335H20.42C20.7605 21.3335 21.0463 21.077 21.0827 20.7384C21.2487 19.1994 21.3334 17.605 21.3334 16.0001C21.3334 14.3952 21.2487 12.8009 21.0827 11.2618C21.0463 10.9232 20.7605 10.6667 20.42 10.6667Z" fill="#6595FB"/>
<path id="Vector_5" d="M2.53268 9.33336H9.26186C9.58736 9.33336 9.86536 9.09836 9.91943 8.77736C10.411 5.85286 11.1844 3.38736 12.1557 1.64648C12.2879 1.40948 12.2632 1.11586 12.0932 0.90367C11.9227 0.692733 11.6407 0.603545 11.3817 0.683608C7.38686 1.8868 3.94868 4.68036 1.94736 8.34773C1.83474 8.55411 1.8393 8.8048 1.95911 9.00723C2.07955 9.20905 2.29761 9.33336 2.53268 9.33336Z" fill="#6595FB"/>
<path id="Vector_6" d="M9.3965 21.114C9.52344 20.974 9.58463 20.7872 9.56575 20.5997C9.41144 19.0684 9.33331 17.5202 9.33331 16.0001C9.33331 14.4799 9.41144 12.9317 9.56575 11.4004C9.58463 11.2129 9.52344 11.0261 9.3965 10.8861C9.27019 10.7461 9.0905 10.6667 8.90238 10.6667H1.39519C1.10481 10.6667 0.848312 10.8542 0.760437 11.1303C0.255875 12.7104 0 14.3484 0 16.0001C0 17.6517 0.255875 19.2897 0.760437 20.8699C0.848312 21.1459 1.10481 21.3334 1.39519 21.3334H8.90238C9.0905 21.3334 9.27019 21.254 9.3965 21.114Z" fill="#6595FB"/>
<path id="Vector_7" d="M9.91936 23.2227C9.8653 22.9018 9.5873 22.6667 9.2618 22.6667H2.53268C2.29768 22.6667 2.07955 22.7911 1.95911 22.9929C1.8393 23.1954 1.83474 23.4461 1.94736 23.6524C3.94868 27.3197 7.3868 30.1134 11.3816 31.3165C11.4447 31.3361 11.5092 31.3451 11.5737 31.3451C11.7722 31.3451 11.9643 31.2559 12.0932 31.0964C12.2632 30.8842 12.2879 30.5906 12.1557 30.3536C11.1844 28.6127 10.4109 26.1472 9.91936 23.2227Z" fill="#6595FB"/>
<path id="Vector_8" d="M29.4674 22.6667H22.7383C22.4128 22.6667 22.1348 22.9017 22.0807 23.2227C21.5892 26.1472 20.8157 28.6127 19.8444 30.3536C19.7122 30.5906 19.737 30.8842 19.9069 31.0964C20.0359 31.2559 20.2279 31.3451 20.4265 31.3451C20.4903 31.3451 20.5554 31.336 20.6185 31.3165C24.6134 30.1134 28.0515 27.3197 30.0528 23.6524C30.1654 23.4461 30.1609 23.1954 30.041 22.9929C29.9205 22.7911 29.7025 22.6667 29.4674 22.6667Z" fill="#6595FB"/>
<path id="Vector_9" d="M11.455 9.09313C11.5813 9.2455 11.7695 9.33337 11.9674 9.33337H20.0325C20.2305 9.33337 20.4186 9.2455 20.5449 9.09313C20.6718 8.94075 20.724 8.74025 20.6882 8.54562C19.7298 3.35419 17.8893 0 16 0C14.1107 0 12.2702 3.35419 11.3118 8.54556C11.276 8.74025 11.3281 8.94075 11.455 9.09313Z" fill="#6595FB"/>
</g>
</g>
</g>
</svg>
