<svg width="32" height="32" viewBox="0 0 32 32" fill="none" xmlns="http://www.w3.org/2000/svg">
<g id="Insights">
<path id="Vector" d="M29.5269 11.123C29.5269 10.5972 29.1006 10.1709 28.5747 10.1709H24.4912C23.9653 10.1709 23.5391 10.5972 23.5391 11.123V27.0181H29.5269V11.123Z" fill="#6595FB"/>
<path id="Vector_2" d="M22.3472 14.2197C22.3472 13.6938 21.9207 13.2676 21.395 13.2676H17.3115C16.7856 13.2676 16.3594 13.6938 16.3594 14.2197V27.0186H22.3472V14.2197Z" fill="#6595FB"/>
<path id="Vector_3" d="M15.1675 17.832C15.1675 17.3062 14.7412 16.8799 14.2153 16.8799H10.1318C9.6062 16.8799 9.17969 17.3062 9.17969 17.832V27.0186H15.1675V17.832Z" fill="#6595FB"/>
<path id="Vector_4" d="M7.98779 21.4446C7.98779 20.9187 7.56128 20.4922 7.03564 20.4922H2.95215C2.42627 20.4922 2 20.9187 2 21.4446V27.0188H7.98779V21.4446Z" fill="#6595FB"/>
<path id="Vector_5" d="M4.63863 14.2854C4.66621 14.2854 4.69405 14.2842 4.72188 14.2817C4.93843 14.2629 10.0752 13.7932 14.3356 11.3252C17.1997 9.66625 18.8364 8.23314 19.6164 7.45262L19.6032 8.12572C19.5927 8.65135 20.0105 9.08617 20.5363 9.09642C20.5427 9.09667 20.549 9.09667 20.5554 9.09667C21.0727 9.09667 21.4968 8.6826 21.507 8.16332L21.569 5.03295C21.5742 4.7805 21.4787 4.53636 21.3037 4.35448C21.1286 4.17235 20.8884 4.06712 20.6359 4.06224L17.5056 4.00023C16.9799 3.98876 16.5451 4.40746 16.5346 4.93334C16.5244 5.45921 16.9421 5.89378 17.468 5.90428L18.4499 5.92357C17.914 6.49315 16.4074 7.92406 13.3811 9.67723C9.49678 11.9275 4.60738 12.3801 4.55684 12.3845C4.03316 12.4304 3.64571 12.8918 3.69112 13.4155C3.73409 13.9114 4.14986 14.2854 4.63863 14.2854Z" fill="#6595FB"/>
</g>
</svg>
