<svg width="108" height="32" viewBox="0 0 108 32" fill="none" xmlns="http://www.w3.org/2000/svg">
<path d="M14.506 0C12.8239 0 11.4521 1.32647 11.4521 2.96727C11.4521 4.48088 12.6236 5.72641 14.1242 5.91127V11.1825C12.5506 11.3019 11.1767 12.1259 10.3546 13.3469L5.78569 10.6007C5.98414 10.2062 6.10777 9.76618 6.10777 9.29745C6.10777 7.65666 4.73598 6.33018 3.05389 6.33018C1.37179 6.33018 0 7.65666 0 9.29745C0 10.9382 1.37179 12.2764 3.05389 12.2764C3.97621 12.2764 4.79711 11.8614 5.35623 11.2291L9.98478 14.0102C9.70159 14.6187 9.5434 15.2901 9.5434 16C9.5434 16.708 9.69106 17.3826 9.97285 17.9898L5.35623 20.7593C4.79719 20.1308 3.97297 19.7236 3.05389 19.7236C1.37179 19.7236 0 21.0618 0 22.7025C0 24.3434 1.37179 25.6698 3.05389 25.6698C4.73598 25.6698 6.10777 24.3434 6.10777 22.7025C6.10777 22.2301 5.98713 21.7845 5.78569 21.3876L10.3546 18.6415C11.176 19.8669 12.547 20.6978 14.1242 20.8175V26.0887C12.6236 26.2736 11.4521 27.5191 11.4521 29.0327C11.4521 30.6735 12.8239 32 14.506 32C16.1881 32 17.5599 30.6735 17.5599 29.0327C17.5599 27.5191 16.3884 26.2736 14.8877 26.0887V20.8175C16.4649 20.6978 17.8359 19.8669 18.6573 18.6415L23.2262 21.3876C23.0248 21.7845 22.9042 22.2301 22.9042 22.7025C22.9042 24.3434 24.2759 25.6698 25.958 25.6698C27.6401 25.6698 29 24.3434 29 22.7025C29 21.0618 27.6401 19.7236 25.958 19.7236C25.039 19.7236 24.2147 20.1308 23.6557 20.7593L19.0391 17.9898C19.3209 17.3826 19.4685 16.708 19.4685 16C19.4685 15.2901 19.3103 14.6187 19.0271 14.0102L23.6557 11.2291C24.2148 11.8614 25.0357 12.2764 25.958 12.2764C27.6401 12.2764 29 10.9382 29 9.29745C29 7.65666 27.6401 6.33018 25.958 6.33018C24.2759 6.33018 22.9042 7.65666 22.9042 9.29745C22.9042 9.76618 23.0278 10.2062 23.2262 10.6007L18.6573 13.3469C17.8353 12.1259 16.4614 11.3019 14.8877 11.1825V5.91127C16.3884 5.72641 17.5599 4.48088 17.5599 2.96727C17.5599 1.32647 16.1881 0 14.506 0ZM14.2674 0.733091C14.3446 0.725452 14.4266 0.733091 14.506 0.733091C15.7754 0.733091 16.7964 1.72896 16.7964 2.96727C16.7964 4.20559 15.7754 5.21309 14.506 5.21309C13.2365 5.21309 12.2155 4.20559 12.2155 2.96727C12.2155 1.80635 13.1085 0.847674 14.2674 0.733091ZM2.8153 7.06327C2.89256 7.05563 2.97454 7.06327 3.05389 7.06327C4.32337 7.06327 5.3443 8.05914 5.3443 9.29745C5.3443 10.5358 4.32337 11.5433 3.05389 11.5433C1.7844 11.5433 0.763472 10.5358 0.763472 9.29745C0.763472 8.13653 1.65646 7.17786 2.8153 7.06327ZM25.7195 7.06327C25.7967 7.05563 25.8787 7.06327 25.958 7.06327C27.2275 7.06327 28.2485 8.05914 28.2485 9.29745C28.2485 10.5358 27.2275 11.5433 25.958 11.5433C24.6886 11.5433 23.6557 10.5358 23.6557 9.29745C23.6557 8.13653 24.5606 7.17786 25.7195 7.06327ZM14.506 11.904C16.8296 11.904 18.7051 13.7334 18.7051 16C18.7051 18.2666 16.8296 20.096 14.506 20.096C12.1823 20.096 10.3069 18.2666 10.3069 16C10.3069 13.7334 12.1823 11.904 14.506 11.904ZM3.05389 20.4567C4.32337 20.4567 5.3443 21.4643 5.3443 22.7025C5.3443 23.9409 4.32337 24.9367 3.05389 24.9367C1.7844 24.9367 0.763472 23.9409 0.763472 22.7025C0.763472 21.4643 1.7844 20.4567 3.05389 20.4567ZM25.958 20.4567C27.2275 20.4567 28.2485 21.4643 28.2485 22.7025C28.2485 23.9409 27.2275 24.9367 25.958 24.9367C24.6886 24.9367 23.6557 23.9409 23.6557 22.7025C23.6557 21.4643 24.6886 20.4567 25.958 20.4567ZM14.506 26.7869C15.7754 26.7869 16.7964 27.7944 16.7964 29.0327C16.7964 30.2711 15.7754 31.2669 14.506 31.2669C13.2365 31.2669 12.2155 30.2711 12.2155 29.0327C12.2155 27.7944 13.2365 26.7869 14.506 26.7869Z" fill="url(#paint0_linear_351_15162)"/>
<path d="M38.2038 18.0386C38.2038 19.6191 38.9941 20.5162 40.596 20.5162C41.0445 20.5162 41.4503 20.4521 41.7707 20.3026C42.3688 20.0677 42.7746 19.6191 42.9882 18.9997C43.0736 18.7007 43.1163 18.3803 43.1163 18.0386C43.1163 17.6969 43.0736 17.3765 42.9882 17.0774C42.7532 16.4153 42.3901 16.0522 41.7707 15.7532C41.4503 15.6251 41.0445 15.561 40.596 15.561C38.9941 15.561 38.2038 16.458 38.2038 18.0386ZM35 8.42717H38.2038V13.7668C38.93 12.9339 39.9125 12.5921 41.0018 12.5921C44.1202 12.5921 46.3201 15.0911 46.3201 18.0813C46.3201 21.456 43.8211 23.4851 40.6387 23.4851C37.3281 23.4851 35 21.3065 35 18.0386V8.42717ZM48.134 12.6989H51.3378V23.3783H48.134V12.6989ZM49.7359 11.6951C48.6466 11.6951 47.8777 10.9261 47.8777 9.83685C47.8777 8.7262 48.6466 8 49.7359 8C50.8466 8 51.5728 8.7262 51.5728 9.83685C51.5728 10.9689 50.8679 11.6951 49.7359 11.6951ZM57.0817 20.4735H62.934V23.3783H53.109V20.4521L58.5341 15.6037H53.5361V12.6989H62.5068V15.6251L57.0817 20.4735ZM72.3302 18.0386C72.2448 16.4794 71.5399 15.561 69.9167 15.561C69.4681 15.561 69.0837 15.6251 68.7633 15.7532C67.7808 16.2017 67.4177 17.0347 67.4177 18.0599C67.4177 18.4017 67.4604 18.7221 67.5672 18.9997C67.8876 20.1104 68.8487 20.5162 69.9167 20.5162C71.5399 20.5162 72.3302 19.6405 72.3302 18.0386ZM76.3884 23.3783H73.1846C72.971 22.8443 72.7787 22.3103 72.6506 21.755C71.9244 22.9511 70.8137 23.4851 69.4468 23.4851C66.3925 23.4851 64.2139 20.922 64.2139 17.9959C64.2139 14.6212 66.7342 12.5921 69.9167 12.5921C73.3127 12.5921 75.4486 14.7707 75.534 18.0386C75.5554 18.3163 75.5554 18.6366 75.5554 19.0211C75.5554 20.5162 75.7903 22.0113 76.3884 23.3783ZM77.9887 12.6989H81.1925V23.3783H77.9887V12.6989ZM79.5906 11.6951C78.5013 11.6951 77.7324 10.9261 77.7324 9.83685C77.7324 8.7262 78.5013 8 79.5906 8C80.7012 8 81.4274 8.7262 81.4274 9.83685C81.4274 10.9689 80.7226 11.6951 79.5906 11.6951ZM87.0645 18.0386C87.0645 19.6191 87.8548 20.5162 89.4567 20.5162C89.9052 20.5162 90.311 20.4521 90.6314 20.3026C91.2295 20.0677 91.6353 19.6191 91.8489 18.9997C91.9343 18.7007 91.977 18.3803 91.977 18.0386C91.977 17.6969 91.9343 17.3765 91.8489 17.0774C91.6139 16.4153 91.2508 16.0522 90.6314 15.7532C90.311 15.6251 89.9052 15.561 89.4567 15.561C87.8548 15.561 87.0645 16.458 87.0645 18.0386ZM83.8607 8.42717H87.0645V13.7668C87.7907 12.9339 88.7732 12.5921 89.8625 12.5921C92.9809 12.5921 95.1808 15.0911 95.1808 18.0813C95.1808 21.456 92.6818 23.4851 89.4994 23.4851C86.1888 23.4851 83.8607 21.3065 83.8607 18.0386V8.42717ZM102.142 20.5162C103.701 20.5162 104.598 19.5978 104.598 18.0386C104.598 16.4794 103.701 15.561 102.142 15.561C100.583 15.561 99.6859 16.4794 99.6859 18.0386C99.6859 19.5978 100.583 20.5162 102.142 20.5162ZM102.142 23.4851C98.8529 23.4851 96.4821 21.3065 96.4821 18.0386C96.4821 14.6639 98.9383 12.5921 102.142 12.5921C105.453 12.5921 107.802 14.7707 107.802 18.0386C107.802 21.3919 105.325 23.4851 102.142 23.4851Z" fill="black"/>
<defs>
<linearGradient id="paint0_linear_351_15162" x1="0" y1="0" x2="29" y2="0" gradientUnits="userSpaceOnUse">
<stop stop-color="#EF4136"/>
<stop offset="1" stop-color="#FBB040"/>
</linearGradient>
</defs>
</svg>
