<?xml version="1.0" encoding="utf-8"?>
<!-- Generator: Adobe Illustrator 27.3.1, SVG Export Plug-In . SVG Version: 6.00 Build 0)  -->
<svg version="1.1" id="Layer_1" xmlns="http://www.w3.org/2000/svg" xmlns:xlink="http://www.w3.org/1999/xlink" x="0px" y="0px"
	 viewBox="0 0 16 16" style="enable-background:new 0 0 16 16;" xml:space="preserve">
<style type="text/css">
	.st0{fill:none;stroke:#FFFFFF;stroke-width:1.5;stroke-linecap:round;stroke-linejoin:round;}
</style>
<path class="st0" d="M11,6.3L5,2.8 M2.2,4.6L8,8l5.8-3.4 M8,14.7V8 M14,10.7V5.3c0-0.2-0.1-0.5-0.2-0.7c-0.1-0.2-0.3-0.4-0.5-0.5
	L8.7,1.5C8.5,1.4,8.2,1.3,8,1.3S7.5,1.4,7.3,1.5L2.7,4.2C2.5,4.3,2.3,4.5,2.2,4.7C2.1,4.9,2,5.1,2,5.3v5.3c0,0.2,0.1,0.5,0.2,0.7
	c0.1,0.2,0.3,0.4,0.5,0.5l4.7,2.7c0.2,0.1,0.4,0.2,0.7,0.2s0.5-0.1,0.7-0.2l4.7-2.7c0.2-0.1,0.4-0.3,0.5-0.5
	C13.9,11.1,14,10.9,14,10.7z"/>
</svg>
