<svg width="119" height="120" viewBox="0 0 119 120" fill="none" xmlns="http://www.w3.org/2000/svg">
<path d="M111.183 60C115.777 60 119.56 56.2585 118.92 51.7102C117.46 41.3322 113.275 31.4712 106.726 23.1639C98.4523 12.6683 86.8856 5.26395 73.89 2.14399C60.8944 -0.975967 47.2269 0.370166 35.0897 5.96548C22.9526 11.5608 13.0526 21.0794 6.98511 32.9876C0.91761 44.8957 -0.964072 58.4998 1.64327 71.6079C4.25062 84.7159 11.1951 96.5644 21.3578 105.244C31.5205 113.924 44.3095 118.929 57.664 119.454C68.2342 119.869 78.6714 117.458 87.9256 112.54C91.9814 110.384 92.7846 105.124 90.0848 101.408C87.3851 97.6924 82.2042 96.9546 78.0375 98.8873C71.9054 101.731 65.1498 103.102 58.317 102.834C48.6958 102.456 39.4819 98.8495 32.1602 92.5962C24.8385 86.3429 19.8353 77.8066 17.9568 68.3629C16.0784 58.9192 17.434 49.1181 21.8054 40.5389C26.1767 31.9596 33.3091 25.1019 42.0534 21.0708C50.7976 17.0396 60.6444 16.0698 70.0071 18.3176C79.3697 20.5653 87.703 25.8998 93.6641 33.4614C97.8974 38.8314 100.759 45.1025 102.063 51.7353C102.948 56.2422 106.59 60 111.183 60Z" fill="url(#paint0_angular_6358_886)"/>
<defs>
<radialGradient id="paint0_angular_6358_886" cx="0" cy="0" r="1" gradientUnits="userSpaceOnUse" gradientTransform="translate(60 60) rotate(54.0771) scale(60.5083)">
<stop stop-color="#6595FB" stop-opacity="0"/>
<stop offset="0.155" stop-color="#6595FB" stop-opacity="0"/>
<stop offset="1" stop-color="#6595FB"/>
</radialGradient>
</defs>
</svg>
