<svg width="128" height="128" viewBox="0 0 128 128" fill="none" xmlns="http://www.w3.org/2000/svg">
<g id="fi_1161388" clip-path="url(#clip0_351_15866)">
<g id="surface1">
<path id="Vector" d="M112.994 85.4776C109.554 94.8018 104.351 102.909 97.5274 109.572C89.7608 117.156 79.5908 123.183 67.2998 127.481C66.8965 127.622 66.4756 127.737 66.0527 127.822C65.4942 127.933 64.9258 127.992 64.3623 128H64.252C63.6514 128 63.0479 127.94 62.4492 127.822C62.0264 127.737 61.6113 127.622 61.21 127.484C48.9043 123.192 38.7217 117.169 30.9472 109.585C24.1211 102.922 18.9189 94.8194 15.4834 85.4951C9.23629 68.542 9.59176 49.8662 9.87789 34.8584L9.88278 34.6279C9.94039 33.3886 9.9775 32.0869 9.99801 30.6494C10.1025 23.5918 15.7138 17.7529 22.7724 17.3593C37.4892 16.538 48.874 11.7382 58.6016 2.25677L58.6865 2.17864C60.3018 0.697198 62.3369 -0.0293654 64.3623 0.000908227C66.3154 0.0262989 68.2608 0.751885 69.8184 2.17864L69.9014 2.25677C79.6309 11.7382 91.0157 16.538 105.732 17.3593C112.791 17.7529 118.402 23.5918 118.507 30.6494C118.527 32.0966 118.565 33.3964 118.622 34.6279L118.625 34.7256C118.91 49.7617 119.264 68.4746 112.994 85.4776Z" fill="#15B993"/>
<path id="Vector_2" d="M112.995 85.4776C109.555 94.8018 104.352 102.909 97.5283 109.572C89.7617 117.156 79.5918 123.183 67.3008 127.482C66.8975 127.622 66.4766 127.737 66.0537 127.822C65.4951 127.933 64.9268 127.992 64.3633 128V0.000976562C66.3164 0.0263673 68.2617 0.751954 69.8193 2.17871L69.9023 2.25684C79.6318 11.7383 91.0166 16.5381 105.733 17.3594C112.792 17.7529 118.403 23.5918 118.508 30.6494C118.528 32.0967 118.565 33.3965 118.623 34.628L118.626 34.7256C118.911 49.7618 119.265 68.4747 112.995 85.4776Z" fill="#119C7B"/>
<path id="Vector_3" d="M96.1495 64C96.1495 81.5518 81.8985 95.8389 64.3614 95.9014H64.2491C46.6602 95.9014 32.3477 81.5899 32.3477 64C32.3477 46.4111 46.6602 32.0996 64.2491 32.0996H64.3614C81.8985 32.1621 96.1495 46.4492 96.1495 64Z" fill="white"/>
<path id="Vector_4" d="M96.1514 64C96.1514 81.5518 81.9004 95.8389 64.3633 95.9014V32.0996C81.9004 32.1621 96.1514 46.4492 96.1514 64Z" fill="#E1EBF0"/>
<path id="Vector_5" d="M78.73 59.4063L64.3628 73.7754L61.2583 76.8799C60.5249 77.6133 59.563 77.9795 58.6021 77.9795C57.6401 77.9795 56.6792 77.6133 55.9448 76.8799L49.27 70.2022C47.8032 68.7354 47.8032 66.3594 49.27 64.8916C50.7349 63.4248 53.1138 63.4248 54.5806 64.8916L58.6021 68.9131L73.4195 54.0957C74.8863 52.6279 77.2652 52.6279 78.73 54.0957C80.1968 55.5625 80.1968 57.9414 78.73 59.4063Z" fill="#B4D2D7"/>
<path id="Vector_6" d="M78.7305 59.4063L64.3633 73.7754V63.1514L73.4199 54.0957C74.8867 52.6279 77.2656 52.6279 78.7305 54.0957C80.1973 55.5625 80.1973 57.9414 78.7305 59.4063Z" fill="#6FA5AA"/>
</g>
</g>
<defs>
<clipPath id="clip0_351_15866">
<rect width="128" height="128" fill="white"/>
</clipPath>
</defs>
</svg>
